<?xml version="1.0" encoding="utf-8"?><svg xmlns="http://www.w3.org/2000/svg" xmlns:xlink="http://www.w3.org/1999/xlink"><symbol fill="none" viewBox="0 0 1024 1024" id="github" xmlns="http://www.w3.org/2000/svg"><path fill-rule="evenodd" clip-rule="evenodd" d="M512 0C229.12 0 0 229.12 0 512c0 226.56 146.56 417.92 350.08 485.76 25.6 4.48 35.2-10.88 35.2-24.32 0-12.16-.64-52.48-.64-95.36-128.64 23.68-161.92-31.36-172.16-60.16-5.76-14.72-30.72-60.16-52.48-72.32-17.92-9.6-43.52-33.28-.64-33.92 40.32-.64 69.12 37.12 78.72 52.48 46.08 77.44 119.68 55.68 149.12 42.24 4.48-33.28 17.92-55.68 32.64-68.48-113.92-12.8-232.96-56.96-232.96-252.8 0-55.68 19.84-101.76 52.48-137.6-5.12-12.8-23.04-65.28 5.12-135.68 0 0 42.88-13.44 140.8 52.48 40.96-11.52 84.48-17.28 128-17.28 43.52 0 87.04 5.76 128 17.28 97.92-66.56 140.8-52.48 140.8-52.48 28.16 70.4 10.24 122.88 5.12 135.68 32.64 35.84 52.48 81.28 52.48 137.6 0 196.48-119.68 240-233.6 252.8 18.56 16 34.56 46.72 34.56 94.72 0 68.48-.64 123.52-.64 140.8 0 13.44 9.6 29.44 35.2 24.32C877.44 929.92 1024 737.92 1024 512 1024 229.12 794.88 0 512 0z" fill="currentColor"/></symbol><symbol viewBox="0 0 16 16" id="home" xmlns="http://www.w3.org/2000/svg"><path d="M15.45 7L14 5.551V2c0-.55-.45-1-1-1h-1c-.55 0-1 .45-1 1v.553L9 .555C8.727.297 8.477 0 8 0s-.727.297-1 .555L.55 7C.238 7.325 0 7.562 0 8c0 .563.432 1 1 1h1v6c0 .55.45 1 1 1h3v-5c0-.55.45-1 1-1h2c.55 0 1 .45 1 1v5h3c.55 0 1-.45 1-1V9h1c.568 0 1-.437 1-1 0-.438-.238-.675-.55-1z" fill="currentColor"/></symbol><symbol viewBox="0 0 24 24" id="npm" xmlns="http://www.w3.org/2000/svg"><g fill="none" fill-rule="evenodd"><path fill="#D40001" d="M0 0h24v24H0z"/><path fill="#FFF" d="M16.718 7.928h-4.513V20.25H4V3h16v17.249h-3.282V7.93z"/></g></symbol><symbol viewBox="0 0 36 36" id="search" xmlns="http://www.w3.org/2000/svg"><path d="M35.525 31.228l-8.88-8.882a14.254 14.254 0 002.298-7.752c0-7.909-6.438-14.343-14.346-14.343C6.686.251.254 6.685.254 14.594c0 7.911 6.433 14.344 14.343 14.344 2.856 0 5.513-.849 7.752-2.294l8.88 8.88a.761.761 0 001.076 0l3.22-3.221a.756.756 0 000-1.075zM4.81 14.593c0-5.396 4.391-9.788 9.788-9.788 5.398 0 9.787 4.392 9.787 9.788 0 5.398-4.389 9.789-9.787 9.789-5.398 0-9.788-4.391-9.788-9.789z" fill="currentColor"/></symbol></svg>