<?xml version="1.0" standalone="no"?>
<!DOCTYPE svg PUBLIC "-//W3C//DTD SVG 20010904//EN"
 "http://www.w3.org/TR/2001/REC-SVG-20010904/DTD/svg10.dtd">
<svg version="1.0" xmlns="http://www.w3.org/2000/svg"
 width="700.000000pt" height="700.000000pt" viewBox="0 0 700.000000 700.000000"
 preserveAspectRatio="xMidYMid meet">
<metadata>
Created by potrace 1.14, written by Peter Selinger 2001-2017
</metadata>
<g transform="translate(0.000000,700.000000) scale(0.100000,-0.100000)"
fill="#000000" stroke="none">
<path d="M3278 6995 c-1 -1 -42 -5 -89 -9 -47 -4 -95 -8 -105 -10 -10 -2 -41
-7 -69 -10 -505 -66 -1043 -273 -1480 -570 -103 -70 -87 -58 -230 -171 -343
-274 -647 -634 -867 -1030 -49 -87 -148 -289 -148 -301 0 -2 -9 -23 -20 -47
-57 -123 -157 -435 -186 -582 -2 -11 -10 -54 -19 -95 -29 -147 -36 -200 -52
-370 -15 -164 -8 -592 12 -711 2 -13 6 -46 9 -74 9 -78 22 -152 51 -285 21
-96 91 -339 114 -395 5 -11 25 -65 46 -120 63 -166 249 -531 312 -610 4 -6 34
-49 65 -95 170 -255 433 -535 708 -755 92 -74 370 -265 386 -265 4 0 15 -6 23
-14 26 -22 298 -158 411 -205 267 -111 589 -200 859 -237 25 -3 57 -8 71 -10
163 -25 682 -25 842 1 13 2 46 7 73 10 71 10 87 13 115 18 14 3 43 8 65 12 22
4 76 16 120 27 44 10 87 21 96 23 25 5 157 45 219 65 178 57 568 235 660 300
15 11 33 20 39 20 6 0 11 5 11 10 0 6 5 10 10 10 15 0 220 141 330 227 151
117 324 281 450 422 36 41 70 79 76 85 6 6 48 61 94 121 150 197 277 405 383
628 26 53 47 99 47 102 0 2 11 28 24 57 57 127 151 421 182 573 17 81 54 301
59 350 4 33 9 71 11 85 9 46 11 524 4 605 -15 153 -21 210 -25 225 -2 8 -7 35
-10 60 -17 129 -80 384 -136 552 -348 1037 -1167 1857 -2204 2206 -168 57
-420 119 -555 137 -19 3 -46 7 -60 10 -13 2 -52 7 -86 11 -33 3 -74 8 -90 10
-32 5 -540 14 -546 9z m372 -814 c205 -53 370 -191 452 -379 37 -86 50 -149
52 -257 8 -353 -294 -658 -649 -657 -113 0 -186 17 -290 67 -231 112 -368 329
-368 585 0 376 299 667 673 655 47 -2 105 -8 130 -14z m-2122 -1212 c531 -125
1017 -220 1297 -254 11 -2 45 -6 75 -10 30 -3 66 -8 80 -10 22 -3 62 -7 245
-21 60 -4 493 -4 545 0 25 3 86 7 135 11 50 3 101 8 115 10 14 2 48 6 75 10
139 16 229 29 305 42 38 6 45 7 135 24 33 6 71 12 85 14 14 2 58 11 97 19 40
9 87 18 105 21 18 4 85 17 148 31 63 14 124 27 135 30 11 2 110 25 220 51 122
28 223 46 260 46 198 0 338 -206 265 -390 -26 -66 -78 -126 -133 -154 -30 -16
-212 -65 -312 -85 -11 -2 -32 -6 -47 -10 -15 -3 -31 -6 -35 -6 -5 0 -17 -4
-29 -8 -11 -5 -36 -11 -55 -14 -19 -3 -43 -8 -54 -10 -91 -21 -468 -98 -504
-102 -25 -3 -47 -7 -51 -9 -3 -2 -26 -6 -50 -10 -25 -3 -70 -10 -100 -15 -30
-5 -73 -12 -95 -15 -22 -4 -51 -8 -65 -10 -14 -3 -49 -7 -79 -11 -30 -3 -62
-7 -70 -9 -14 -2 -16 -30 -15 -231 1 -201 8 -450 18 -624 7 -115 17 -257 21
-295 2 -22 7 -67 10 -100 7 -74 24 -229 30 -272 11 -76 41 -261 48 -298 3 -11
7 -36 11 -55 37 -205 126 -494 244 -795 39 -99 76 -202 82 -228 31 -141 -51
-298 -188 -360 -65 -29 -180 -32 -248 -6 -95 36 -164 112 -209 233 -13 34 -57
149 -98 256 -131 343 -201 595 -256 920 -11 69 -23 136 -25 150 -3 14 -5 33
-5 43 -1 15 -12 17 -91 17 -83 0 -90 -2 -91 -20 -1 -11 -2 -23 -3 -27 -1 -5
-6 -33 -10 -63 -5 -30 -10 -64 -12 -75 -3 -11 -11 -56 -19 -100 -54 -306 -140
-593 -293 -979 -91 -228 -121 -279 -195 -325 -181 -111 -418 -29 -486 169 -19
55 -23 125 -11 172 10 37 124 342 151 403 44 99 168 543 183 659 4 27 9 52 11
55 1 3 11 58 20 121 9 63 18 126 20 140 8 57 25 209 30 260 2 30 6 82 9 115
12 134 17 195 21 290 3 55 7 141 10 190 2 50 7 217 11 372 l6 282 -23 5 c-13
3 -44 7 -69 11 -25 3 -63 8 -84 10 -22 3 -51 7 -65 10 -14 2 -55 9 -91 14
-104 16 -132 21 -185 32 -27 5 -65 12 -83 15 -18 3 -119 23 -225 45 -105 22
-203 42 -216 45 -47 10 -160 36 -411 95 -92 22 -150 51 -192 96 -147 157 -70
425 138 478 67 17 89 16 182 -6z"/>
</g>
</svg>
